<?xml version="1.0" encoding="utf-8"?>
<!-- Generator: Adobe Illustrator 27.1.0, SVG Export Plug-In . SVG Version: 6.00 Build 0)  -->
<svg version="1.1" id="Capa_1" xmlns="http://www.w3.org/2000/svg" xmlns:xlink="http://www.w3.org/1999/xlink" x="0px" y="0px"
	 viewBox="0 0 512 512" style="enable-background:new 0 0 512 512;" xml:space="preserve">
<style type="text/css">
	.st0{fill:#F19537;}
	.st1{fill:#208425;}
	.st2{fill:#6EE56E;}
	.st3{fill:#99FFA3;}
	.st4{fill:#82D055;}
	.st5{fill:#08750D;}
</style>
<g id="Layer_10">
	<path class="st0" d="M367.9,76.5h56v33.6l-16.8,5.6v16.8h-39.2V76.5z"/>
	<path class="st1" d="M367.9,154.8h56v33.6l-16.8,5.6v16.8h-39.2V154.8z"/>
	<path class="st2" d="M88.1,70.9c0-9.3,7.5-16.8,16.8-16.8h274.3v302.2l-16.8,16.8l16.8,16.8H104.9c-9.3,0-16.8-7.5-16.8-16.8V70.9z
		"/>
	<path class="st1" d="M88.1,70.9v302.2c0,1.5,0.2,3,0.7,4.5l38.5-21.3V54.1h-22.4C95.6,54.1,88.1,61.6,88.1,70.9z"/>
	<path class="st3" d="M155.3,135.4c0,106.6,86.4,193,193,193h30.9V54.1H155.3V135.4z"/>
	<path class="st4" d="M104.9,389.9h274.3l-16.8-16.8l16.8-16.8H104.9c-9.3,0-16.8,7.5-16.8,16.8C88.1,382.4,95.6,389.9,104.9,389.9z
		"/>
	<g>
		<path class="st1" d="M155.3,289.2l56-50.4l36.4,36.4l81.2-81.2l16.8,16.8l5.6-56l-56,5.6l16.8,16.8l-64.4,64.4l-36.4-36.4
			l-56,50.4V289.2z"/>
		<path class="st1" d="M183.2,333.9v-39.2l-28,22.4v16.8H183.2z"/>
		<path class="st1" d="M205.6,272.4v61.6h28v-33.6L205.6,272.4z"/>
		<path class="st1" d="M284,272.4v61.6h-28v-33.6L284,272.4z"/>
		<path class="st1" d="M306.4,250v84h28V222L306.4,250z"/>
	</g>
	<path class="st1" d="M183.2,70.9h-22.4c-3.1,0-5.6,2.5-5.6,5.6v44.8h11.2v-16.8h16.8c9.3,0,16.8-7.5,16.8-16.8
		S192.5,70.9,183.2,70.9z M183.2,93.3h-16.8V82.1h16.8c3.1,0,5.6,2.5,5.6,5.6C188.8,90.8,186.3,93.3,183.2,93.3z"/>
	<path class="st1" d="M216.8,70.9h-11.2v44.8c0,3.1,2.5,5.6,5.6,5.6h28v-11.2h-22.4V70.9z"/>
	<path class="st1" d="M267.2,70.9c-12.4,0-22.4,10-22.4,22.4v28H256v-11.2h22.4v11.2h11.2v-28C289.6,80.9,279.6,70.9,267.2,70.9z
		 M256,98.9v-5.6c0-6.2,5-11.2,11.2-11.2s11.2,5,11.2,11.2v5.6H256z"/>
	<path class="st1" d="M340,70.9v38.1c-0.1,0.7-0.7,1.1-1.3,1c-0.4,0-0.7-0.3-0.9-0.6l-13.3-31c-2.7-6.3-9.9-9.2-16.2-6.5
		c-4.5,1.9-7.5,6.4-7.5,11.3v38H312v-38c0.1-0.7,0.7-1.1,1.3-1c0.4,0,0.7,0.3,0.9,0.6l13.3,31c2.7,6.3,9.9,9.2,16.2,6.5
		c4.5-1.9,7.5-6.4,7.5-11.3V70.9H340z"/>
</g>
<g>
	<path class="st5" d="M483.5,8.6c11.3,0,20.5,9.2,20.5,20.5v454.3c0,11.3-9.2,20.5-20.5,20.5h-455c-11.3,0-20.5-9.2-20.5-20.5V29.1
		C8,17.8,17.2,8.6,28.5,8.6H483.5 M483.5,0.6h-455C12.8,0.6,0,13.4,0,29.1v454.3c0,15.7,12.8,28.5,28.5,28.5h455
		c15.7,0,28.5-12.8,28.5-28.5V29.1C512,13.4,499.2,0.6,483.5,0.6L483.5,0.6z"/>
</g>
<g>
	<path class="st1" d="M46.2,463c-2-0.5-3.6-1.1-4.8-1.9l2.7-6.1c1.2,0.7,2.5,1.2,4,1.7c1.5,0.4,2.9,0.6,4.2,0.6c1.2,0,2-0.1,2.5-0.3
		c0.5-0.2,0.8-0.6,0.8-1c0-0.5-0.3-0.9-1-1.2c-0.7-0.3-1.7-0.5-3.2-0.9c-1.9-0.4-3.5-0.8-4.8-1.3c-1.3-0.5-2.4-1.2-3.4-2.3
		c-1-1.1-1.4-2.5-1.4-4.3c0-1.6,0.4-3,1.3-4.3s2.2-2.3,3.9-3c1.8-0.7,3.9-1.1,6.4-1.1c1.7,0,3.4,0.2,5.1,0.6
		c1.7,0.4,3.1,0.9,4.4,1.6l-2.5,6.1c-2.5-1.2-4.8-1.9-7-1.9c-2.2,0-3.2,0.5-3.2,1.6c0,0.5,0.3,0.9,1,1.1c0.6,0.2,1.7,0.5,3.2,0.8
		c1.9,0.4,3.5,0.8,4.8,1.2s2.4,1.2,3.4,2.3c1,1,1.4,2.5,1.4,4.3c0,1.6-0.4,3-1.3,4.3c-0.9,1.3-2.2,2.3-3.9,3s-3.9,1.1-6.4,1.1
		C50.1,463.7,48.1,463.4,46.2,463z"/>
	<path class="st1" d="M66.4,438.1h8.4v25h-8.4V438.1z"/>
	<path class="st1" d="M101.2,463.1l-0.1-11.4l-5.4,9.1H92l-5.4-8.8v11h-7.7v-25h6.9l8.1,13.3l7.9-13.3h6.9l0.1,25H101.2z"/>
	<path class="st1" d="M115.9,460.6c-2.1-2.1-3.2-5-3.2-8.7v-13.8h8.4v13.5c0,1.8,0.3,3.2,1,4c0.7,0.8,1.6,1.2,2.8,1.2
		c1.2,0,2.2-0.4,2.8-1.2c0.7-0.8,1-2.2,1-4v-13.5h8.3v13.8c0,3.7-1.1,6.6-3.2,8.7c-2.1,2.1-5.1,3.1-9,3.1
		C121.1,463.7,118.1,462.6,115.9,460.6z"/>
	<path class="st1" d="M140.9,438.1h8.4v18.5h11.3v6.5h-19.7V438.1z"/>
	<path class="st1" d="M180.4,458.7h-9.5l-1.7,4.4h-8.6l10.9-25h8.3l10.9,25H182L180.4,458.7z M178,452.7l-2.4-6.3l-2.4,6.3H178z"/>
	<path class="st1" d="M202.8,456.8h-2.3v6.3h-8.4v-25h12c2.3,0,4.3,0.4,6,1.1c1.7,0.8,3,1.9,4,3.3s1.4,3.1,1.4,5
		c0,1.8-0.4,3.3-1.2,4.7c-0.8,1.3-2,2.4-3.5,3.2l5.3,7.7h-9L202.8,456.8z M206.2,445.4c-0.6-0.5-1.4-0.8-2.6-0.8h-3.1v5.9h3.1
		c1.1,0,2-0.3,2.6-0.8c0.6-0.5,0.9-1.2,0.9-2.2S206.8,445.9,206.2,445.4z"/>
	<path class="st1" d="M247.5,439.2c1.7,0.8,3,1.9,4,3.3s1.4,3.1,1.4,5c0,1.9-0.5,3.6-1.4,5s-2.2,2.5-4,3.3s-3.7,1.1-6,1.1h-3.6v6.1
		h-8.4v-25h12C243.8,438.1,245.8,438.5,247.5,439.2z M243.5,449.7c0.6-0.5,0.9-1.2,0.9-2.2s-0.3-1.6-0.9-2.2
		c-0.6-0.5-1.4-0.8-2.6-0.8h-3.1v5.9h3.1C242.1,450.4,242.9,450.2,243.5,449.7z"/>
	<path class="st1" d="M266.3,456.8h-2.3v6.3h-8.4v-25h12c2.3,0,4.3,0.4,6,1.1c1.7,0.8,3,1.9,4,3.3c0.9,1.4,1.4,3.1,1.4,5
		c0,1.8-0.4,3.3-1.2,4.7c-0.8,1.3-2,2.4-3.5,3.2l5.3,7.7h-9L266.3,456.8z M269.7,445.4c-0.6-0.5-1.4-0.8-2.6-0.8h-3.1v5.9h3.1
		c1.1,0,2-0.3,2.6-0.8c0.6-0.5,0.9-1.2,0.9-2.2S270.3,445.9,269.7,445.4z"/>
	<path class="st1" d="M288.1,462c-2.1-1.1-3.8-2.7-5-4.7c-1.2-2-1.8-4.2-1.8-6.7s0.6-4.7,1.8-6.7c1.2-2,2.9-3.5,5-4.7
		c2.1-1.1,4.6-1.7,7.3-1.7c2.7,0,5.1,0.6,7.3,1.7c2.1,1.1,3.8,2.7,5,4.7c1.2,2,1.8,4.2,1.8,6.7s-0.6,4.7-1.8,6.7
		c-1.2,2-2.9,3.5-5,4.7c-2.1,1.1-4.6,1.7-7.3,1.7C292.7,463.7,290.2,463.1,288.1,462z M298.2,456.1c0.8-0.5,1.5-1.2,2-2.2
		s0.8-2,0.8-3.3s-0.2-2.4-0.8-3.3s-1.2-1.7-2-2.2c-0.8-0.5-1.8-0.8-2.8-0.8c-1,0-2,0.3-2.8,0.8c-0.8,0.5-1.5,1.2-2,2.2
		s-0.8,2-0.8,3.3s0.2,2.4,0.8,3.3s1.2,1.7,2,2.2c0.8,0.5,1.8,0.8,2.8,0.8C296.4,456.8,297.3,456.6,298.2,456.1z"/>
	<path class="st1" d="M312.5,438.1h12.3c2.8,0,5.2,0.5,7.4,1.5c2.1,1,3.8,2.5,5,4.3s1.8,4.1,1.8,6.6s-0.6,4.8-1.8,6.6
		s-2.8,3.3-5,4.3c-2.1,1-4.6,1.5-7.4,1.5h-12.3V438.1z M324.5,456.5c1.8,0,3.3-0.5,4.3-1.6c1.1-1,1.6-2.5,1.6-4.4s-0.5-3.3-1.6-4.4
		c-1.1-1-2.5-1.6-4.3-1.6H321v11.9H324.5z"/>
	<path class="st1" d="M345,460.6c-2.1-2.1-3.2-5-3.2-8.7v-13.8h8.4v13.5c0,1.8,0.3,3.2,1,4c0.7,0.8,1.6,1.2,2.8,1.2
		c1.2,0,2.2-0.4,2.8-1.2c0.7-0.8,1-2.2,1-4v-13.5h8.3v13.8c0,3.7-1.1,6.6-3.2,8.7c-2.1,2.1-5.1,3.1-9,3.1S347.2,462.6,345,460.6z"/>
	<path class="st1" d="M375.8,462c-2.1-1.1-3.8-2.7-5-4.6c-1.2-2-1.8-4.2-1.8-6.8c0-2.5,0.6-4.8,1.8-6.8c1.2-2,2.9-3.5,5-4.6
		c2.1-1.1,4.5-1.7,7.1-1.7c2.4,0,4.6,0.4,6.5,1.3c1.9,0.9,3.5,2.1,4.7,3.7l-5.3,4.8c-1.5-2-3.4-2.9-5.5-2.9c-1.8,0-3.2,0.6-4.3,1.7
		c-1.1,1.1-1.6,2.6-1.6,4.6s0.5,3.4,1.6,4.6c1.1,1.1,2.5,1.7,4.3,1.7c2.1,0,3.9-1,5.5-2.9l5.3,4.8c-1.2,1.6-2.8,2.9-4.7,3.7
		c-1.9,0.9-4.1,1.3-6.5,1.3C380.3,463.7,377.9,463.1,375.8,462z"/>
	<path class="st1" d="M401.9,444.6h-7.3v-6.5h23.1v6.5h-7.3v18.5h-8.4V444.6z"/>
	<path class="st1" d="M425.3,462c-2.1-1.1-3.8-2.7-5-4.7c-1.2-2-1.8-4.2-1.8-6.7s0.6-4.7,1.8-6.7c1.2-2,2.9-3.5,5-4.7
		c2.1-1.1,4.6-1.7,7.3-1.7c2.7,0,5.1,0.6,7.3,1.7c2.1,1.1,3.8,2.7,5,4.7c1.2,2,1.8,4.2,1.8,6.7s-0.6,4.7-1.8,6.7
		c-1.2,2-2.9,3.5-5,4.7c-2.1,1.1-4.6,1.7-7.3,1.7C429.8,463.7,427.4,463.1,425.3,462z M435.4,456.1c0.8-0.5,1.5-1.2,2-2.2
		s0.8-2,0.8-3.3s-0.2-2.4-0.8-3.3s-1.2-1.7-2-2.2c-0.8-0.5-1.8-0.8-2.8-0.8c-1,0-2,0.3-2.8,0.8c-0.8,0.5-1.5,1.2-2,2.2
		s-0.8,2-0.8,3.3s0.2,2.4,0.8,3.3s1.2,1.7,2,2.2c0.8,0.5,1.8,0.8,2.8,0.8C433.6,456.8,434.5,456.6,435.4,456.1z"/>
	<path class="st1" d="M453,463c-2-0.5-3.6-1.1-4.8-1.9l2.7-6.1c1.2,0.7,2.5,1.2,4,1.7c1.5,0.4,2.9,0.6,4.2,0.6c1.2,0,2-0.1,2.5-0.3
		c0.5-0.2,0.8-0.6,0.8-1c0-0.5-0.3-0.9-1-1.2c-0.7-0.3-1.7-0.5-3.2-0.9c-1.9-0.4-3.5-0.8-4.8-1.3c-1.3-0.5-2.4-1.2-3.4-2.3
		c-1-1.1-1.4-2.5-1.4-4.3c0-1.6,0.4-3,1.3-4.3s2.2-2.3,3.9-3c1.8-0.7,3.9-1.1,6.4-1.1c1.7,0,3.4,0.2,5.1,0.6
		c1.7,0.4,3.1,0.9,4.4,1.6l-2.5,6.1c-2.5-1.2-4.8-1.9-7-1.9c-2.2,0-3.2,0.5-3.2,1.6c0,0.5,0.3,0.9,1,1.1c0.6,0.2,1.7,0.5,3.2,0.8
		c1.9,0.4,3.5,0.8,4.8,1.2s2.4,1.2,3.4,2.3s1.4,2.5,1.4,4.3c0,1.6-0.4,3-1.3,4.3c-0.9,1.3-2.2,2.3-3.9,3c-1.8,0.8-3.9,1.1-6.4,1.1
		C457,463.7,454.9,463.4,453,463z"/>
</g>
</svg>
