<?xml version="1.0" encoding="utf-8"?>
<!-- Generator: Adobe Illustrator 27.1.0, SVG Export Plug-In . SVG Version: 6.00 Build 0)  -->
<svg version="1.1" id="Capa_1" xmlns="http://www.w3.org/2000/svg" xmlns:xlink="http://www.w3.org/1999/xlink" x="0px" y="0px"
	 viewBox="0 0 512 512" style="enable-background:new 0 0 512 512;" xml:space="preserve">
<style type="text/css">
	.st0{display:none;}
	.st1{display:inline;fill:#F19537;}
	.st2{display:inline;fill:#208425;}
	.st3{display:inline;fill:#6EE56E;}
	.st4{display:inline;fill:#99FFA3;}
	.st5{display:inline;fill:#82D055;}
	.st6{display:inline;}
	.st7{fill:#208425;}
	.st8{fill:#08750D;}
	.st9{fill:#E6B155;}
	.st10{fill:#FFE5B2;}
	.st11{fill:#FFDBAC;}
	.st12{fill:#A2BFE6;}
	.st13{fill:#90A9CC;}
	.st14{fill:#99B4D9;}
	.st15{fill:#CC9D4B;}
	.st16{fill:#FFCB52;}
	.st17{fill:#7083A6;}
	.st18{fill:#84D882;}
	.st19{fill:#D9E1E6;}
	.st20{fill:#C0C8CC;}
	.st21{fill:#C9E6FB;}
	.st22{fill:#B0DCFB;}
	.st23{fill:#6C7E99;}
	.st24{fill:#CCD4D9;}
</style>
<g id="Layer_10" class="st0">
	<path class="st1" d="M367.9,76.5h56v33.6l-16.8,5.6v16.8h-39.2V76.5z"/>
	<path class="st2" d="M367.9,154.8h56v33.6l-16.8,5.6v16.8h-39.2V154.8z"/>
	<path class="st3" d="M88.1,70.9c0-9.3,7.5-16.8,16.8-16.8h274.3v302.2l-16.8,16.8l16.8,16.8H104.9c-9.3,0-16.8-7.5-16.8-16.8V70.9z
		"/>
	<path class="st2" d="M88.1,70.9v302.2c0,1.5,0.2,3,0.7,4.5l38.5-21.3V54.1h-22.4C95.6,54.1,88.1,61.6,88.1,70.9z"/>
	<path class="st4" d="M155.3,135.4c0,106.6,86.4,193,193,193h30.9V54.1H155.3V135.4z"/>
	<path class="st5" d="M104.9,389.9h274.3l-16.8-16.8l16.8-16.8H104.9c-9.3,0-16.8,7.5-16.8,16.8C88.1,382.4,95.6,389.9,104.9,389.9z
		"/>
	<g class="st6">
		<path class="st7" d="M155.3,289.2l56-50.4l36.4,36.4l81.2-81.2l16.8,16.8l5.6-56l-56,5.6l16.8,16.8l-64.4,64.4l-36.4-36.4
			l-56,50.4V289.2z"/>
		<path class="st7" d="M183.2,333.9v-39.2l-28,22.4v16.8H183.2z"/>
		<path class="st7" d="M205.6,272.4v61.6h28v-33.6L205.6,272.4z"/>
		<path class="st7" d="M284,272.4v61.6h-28v-33.6L284,272.4z"/>
		<path class="st7" d="M306.4,250v84h28V222L306.4,250z"/>
	</g>
	<path class="st2" d="M183.2,70.9h-22.4c-3.1,0-5.6,2.5-5.6,5.6v44.8h11.2v-16.8h16.8c9.3,0,16.8-7.5,16.8-16.8
		S192.5,70.9,183.2,70.9z M183.2,93.3h-16.8V82.1h16.8c3.1,0,5.6,2.5,5.6,5.6C188.8,90.8,186.3,93.3,183.2,93.3z"/>
	<path class="st2" d="M216.8,70.9h-11.2v44.8c0,3.1,2.5,5.6,5.6,5.6h28v-11.2h-22.4V70.9z"/>
	<path class="st2" d="M267.2,70.9c-12.4,0-22.4,10-22.4,22.4v28H256v-11.2h22.4v11.2h11.2v-28C289.6,80.9,279.6,70.9,267.2,70.9z
		 M256,98.9v-5.6c0-6.2,5-11.2,11.2-11.2s11.2,5,11.2,11.2v5.6H256z"/>
	<path class="st2" d="M340,70.9v38.1c-0.1,0.7-0.7,1.1-1.3,1c-0.4,0-0.7-0.3-0.9-0.6l-13.3-31c-2.7-6.3-9.9-9.2-16.2-6.5
		c-4.5,1.9-7.5,6.4-7.5,11.3v38H312v-38c0.1-0.7,0.7-1.1,1.3-1c0.4,0,0.7,0.3,0.9,0.6l13.3,31c2.7,6.3,9.9,9.2,16.2,6.5
		c4.5-1.9,7.5-6.4,7.5-11.3V70.9H340z"/>
</g>
<g>
	<path class="st8" d="M483.5,8.6c11.3,0,20.5,9.2,20.5,20.5v454.3c0,11.3-9.2,20.5-20.5,20.5h-455c-11.3,0-20.5-9.2-20.5-20.5V29.1
		C8,17.8,17.2,8.6,28.5,8.6H483.5 M483.5,0.6h-455C12.8,0.6,0,13.4,0,29.1v454.3c0,15.7,12.8,28.5,28.5,28.5h455
		c15.7,0,28.5-12.8,28.5-28.5V29.1C512,13.4,499.2,0.6,483.5,0.6L483.5,0.6z"/>
</g>
<g>
	<path class="st7" d="M56.7,461.8c-1.8-0.4-3.2-1-4.4-1.7l2.5-5.6c1.1,0.6,2.3,1.1,3.6,1.5c1.3,0.4,2.6,0.6,3.8,0.6
		c1.1,0,1.8-0.1,2.3-0.3c0.5-0.2,0.7-0.5,0.7-0.9c0-0.5-0.3-0.8-0.9-1.1s-1.6-0.5-2.9-0.8c-1.7-0.4-3.2-0.8-4.4-1.2
		c-1.2-0.4-2.2-1.1-3-2.1c-0.9-1-1.3-2.3-1.3-3.9c0-1.4,0.4-2.7,1.2-3.9c0.8-1.2,2-2.1,3.6-2.7c1.6-0.7,3.5-1,5.8-1
		c1.6,0,3.1,0.2,4.6,0.5c1.5,0.3,2.8,0.8,4,1.5l-2.3,5.5c-2.2-1.1-4.3-1.7-6.3-1.7c-2,0-2.9,0.5-2.9,1.4c0,0.5,0.3,0.8,0.9,1
		c0.6,0.2,1.5,0.5,2.9,0.7c1.7,0.3,3.2,0.7,4.4,1.1c1.2,0.4,2.2,1.1,3.1,2.1s1.3,2.2,1.3,3.9c0,1.4-0.4,2.7-1.2,3.9
		c-0.8,1.2-2,2.1-3.6,2.7c-1.6,0.7-3.5,1-5.8,1C60.3,462.4,58.5,462.2,56.7,461.8z"/>
	<path class="st7" d="M75,439.3h7.6v22.6H75V439.3z"/>
	<path class="st7" d="M106.5,461.9l-0.1-10.3l-4.9,8.3h-3.4l-4.9-7.9v9.9h-6.9v-22.6h6.3l7.4,12l7.2-12h6.3l0.1,22.6H106.5z"/>
	<path class="st7" d="M119.8,459.6c-1.9-1.9-2.9-4.5-2.9-7.9v-12.4h7.6v12.2c0,1.7,0.3,2.9,0.9,3.6c0.6,0.8,1.4,1.1,2.6,1.1
		c1.1,0,2-0.4,2.6-1.1s0.9-2,0.9-3.6v-12.2h7.5v12.4c0,3.4-1,6-2.9,7.9c-1.9,1.9-4.6,2.8-8.1,2.8
		C124.5,462.4,121.8,461.5,119.8,459.6z"/>
	<path class="st7" d="M142.5,439.3h7.6V456h10.2v5.9h-17.8V439.3z"/>
	<path class="st7" d="M178.1,458h-8.6l-1.5,3.9h-7.8l9.9-22.6h7.5l9.9,22.6h-7.9L178.1,458z M176,452.5l-2.2-5.7l-2.2,5.7H176z"/>
	<path class="st7" d="M198.4,456.2h-2.1v5.7h-7.6v-22.6h10.9c2.1,0,3.9,0.3,5.5,1c1.6,0.7,2.7,1.7,3.6,3c0.8,1.3,1.3,2.8,1.3,4.5
		c0,1.6-0.4,3-1.1,4.2c-0.7,1.2-1.8,2.2-3.2,2.9l4.7,7h-8.1L198.4,456.2z M201.5,445.9c-0.5-0.5-1.3-0.7-2.3-0.7h-2.8v5.3h2.8
		c1,0,1.8-0.2,2.3-0.7c0.5-0.5,0.8-1.1,0.8-2S202,446.3,201.5,445.9z"/>
	<path class="st7" d="M238.8,440.3c1.6,0.7,2.7,1.7,3.6,3c0.8,1.3,1.3,2.8,1.3,4.5c0,1.7-0.4,3.2-1.3,4.5s-2,2.3-3.6,3
		c-1.6,0.7-3.4,1-5.5,1h-3.3v5.6h-7.6v-22.6h10.9C235.5,439.3,237.3,439.7,238.8,440.3z M235.2,449.8c0.5-0.5,0.8-1.1,0.8-2
		s-0.3-1.5-0.8-2c-0.5-0.5-1.3-0.7-2.3-0.7h-2.8v5.3h2.8C233.9,450.5,234.7,450.3,235.2,449.8z"/>
	<path class="st7" d="M255.9,456.2h-2.1v5.7h-7.6v-22.6h10.9c2.1,0,3.9,0.3,5.5,1c1.6,0.7,2.7,1.7,3.6,3c0.8,1.3,1.3,2.8,1.3,4.5
		c0,1.6-0.4,3-1.1,4.2c-0.7,1.2-1.8,2.2-3.2,2.9l4.7,7h-8.1L255.9,456.2z M258.9,445.9c-0.5-0.5-1.3-0.7-2.3-0.7h-2.8v5.3h2.8
		c1,0,1.8-0.2,2.3-0.7c0.5-0.5,0.8-1.1,0.8-2S259.4,446.3,258.9,445.9z"/>
	<path class="st7" d="M275.5,460.9c-1.9-1-3.5-2.4-4.6-4.2c-1.1-1.8-1.6-3.8-1.6-6.1s0.5-4.3,1.6-6.1c1.1-1.8,2.6-3.2,4.6-4.2
		c1.9-1,4.1-1.5,6.6-1.5c2.4,0,4.6,0.5,6.6,1.5c1.9,1,3.5,2.4,4.6,4.2c1.1,1.8,1.6,3.8,1.6,6.1s-0.5,4.3-1.6,6.1
		c-1.1,1.8-2.6,3.2-4.6,4.2c-1.9,1-4.1,1.5-6.6,1.5C279.7,462.4,277.5,461.9,275.5,460.9z M284.7,455.6c0.8-0.5,1.4-1.1,1.8-2
		s0.7-1.8,0.7-3s-0.2-2.1-0.7-3c-0.5-0.9-1.1-1.5-1.8-2s-1.6-0.7-2.6-0.7c-0.9,0-1.8,0.2-2.6,0.7s-1.4,1.1-1.8,2
		c-0.5,0.9-0.7,1.8-0.7,3s0.2,2.1,0.7,3s1.1,1.5,1.8,2c0.8,0.5,1.6,0.7,2.6,0.7C283,456.3,283.9,456,284.7,455.6z"/>
	<path class="st7" d="M297.6,439.3h11.1c2.5,0,4.7,0.5,6.7,1.4c1.9,0.9,3.4,2.2,4.5,3.9c1.1,1.7,1.6,3.7,1.6,6c0,2.3-0.5,4.3-1.6,6
		c-1.1,1.7-2.6,3-4.5,3.9c-1.9,0.9-4.2,1.4-6.7,1.4h-11.1V439.3z M308.5,456c1.6,0,2.9-0.5,3.9-1.4s1.5-2.3,1.5-4s-0.5-3-1.5-4
		s-2.3-1.4-3.9-1.4h-3.2V456H308.5z"/>
	<path class="st7" d="M327,459.6c-1.9-1.9-2.9-4.5-2.9-7.9v-12.4h7.6v12.2c0,1.7,0.3,2.9,0.9,3.6c0.6,0.8,1.4,1.1,2.6,1.1
		c1.1,0,2-0.4,2.6-1.1c0.6-0.8,0.9-2,0.9-3.6v-12.2h7.5v12.4c0,3.4-1,6-2.9,7.9c-1.9,1.9-4.6,2.8-8.1,2.8S329,461.5,327,459.6z"/>
	<path class="st7" d="M354.9,460.9c-1.9-1-3.4-2.4-4.5-4.2c-1.1-1.8-1.6-3.8-1.6-6.1c0-2.3,0.5-4.3,1.6-6.1c1.1-1.8,2.6-3.2,4.5-4.2
		c1.9-1,4.1-1.5,6.5-1.5c2.2,0,4.2,0.4,5.9,1.2c1.7,0.8,3.1,1.9,4.3,3.4l-4.8,4.3c-1.4-1.8-3-2.6-4.9-2.6c-1.6,0-2.9,0.5-3.8,1.5
		c-1,1-1.5,2.4-1.5,4.1s0.5,3.1,1.5,4.1c1,1,2.2,1.5,3.8,1.5c1.9,0,3.5-0.9,4.9-2.6l4.8,4.3c-1.1,1.5-2.5,2.6-4.3,3.4
		c-1.7,0.8-3.7,1.2-5.9,1.2C358.9,462.4,356.8,461.9,354.9,460.9z"/>
	<path class="st7" d="M378.4,460.9c-1.9-1-3.4-2.4-4.5-4.2c-1.1-1.8-1.6-3.8-1.6-6.1c0-2.3,0.5-4.3,1.6-6.1c1.1-1.8,2.6-3.2,4.5-4.2
		c1.9-1,4.1-1.5,6.5-1.5c2.2,0,4.2,0.4,5.9,1.2c1.7,0.8,3.1,1.9,4.3,3.4l-4.8,4.3c-1.4-1.8-3-2.6-4.9-2.6c-1.6,0-2.9,0.5-3.8,1.5
		c-1,1-1.5,2.4-1.5,4.1s0.5,3.1,1.5,4.1c1,1,2.2,1.5,3.8,1.5c1.9,0,3.5-0.9,4.9-2.6l4.8,4.3c-1.1,1.5-2.5,2.6-4.3,3.4
		c-1.7,0.8-3.7,1.2-5.9,1.2C382.5,462.4,380.3,461.9,378.4,460.9z"/>
	<path class="st7" d="M397.2,439.3h7.6v22.6h-7.6V439.3z"/>
	<path class="st7" d="M413.8,460.9c-1.9-1-3.5-2.4-4.6-4.2c-1.1-1.8-1.6-3.8-1.6-6.1s0.5-4.3,1.6-6.1c1.1-1.8,2.6-3.2,4.6-4.2
		c1.9-1,4.1-1.5,6.6-1.5c2.4,0,4.6,0.5,6.6,1.5c1.9,1,3.5,2.4,4.6,4.2c1.1,1.8,1.6,3.8,1.6,6.1s-0.5,4.3-1.6,6.1
		c-1.1,1.8-2.6,3.2-4.6,4.2c-1.9,1-4.1,1.5-6.6,1.5C418,462.4,415.8,461.9,413.8,460.9z M423,455.6c0.8-0.5,1.4-1.1,1.8-2
		s0.7-1.8,0.7-3s-0.2-2.1-0.7-3c-0.5-0.9-1.1-1.5-1.8-2s-1.6-0.7-2.6-0.7c-0.9,0-1.8,0.2-2.6,0.7s-1.4,1.1-1.8,2
		c-0.5,0.9-0.7,1.8-0.7,3s0.2,2.1,0.7,3s1.1,1.5,1.8,2c0.8,0.5,1.6,0.7,2.6,0.7C421.3,456.3,422.2,456,423,455.6z M421.3,432.3h6.9
		l-6.4,5.2H417L421.3,432.3z"/>
	<path class="st7" d="M458.2,439.3v22.6h-6.3l-8.6-10.3v10.3h-7.4v-22.6h6.3l8.6,10.3v-10.3H458.2z"/>
</g>
<g>
	<path class="st9" d="M318.5,59h113.6v113.6H318.5V59z"/>
	<path class="st10" d="M386.7,59v39.8l-11.4-5.7l-11.4,5.7V59H386.7z"/>
	<path class="st7" d="M358.3,411.2v-54c0-9.4,7.6-17,17-17h39.8c9.4,0,17,7.6,17,17v54H358.3z"/>
	<circle class="st11" cx="395.2" cy="321.8" r="18.5"/>
	<path class="st12" d="M274.7,128.8l8,8l17-17c2.2-2.2,2.2-5.8,0-8l-17-17l-8,8l7.3,7.3h-82.9v11.4h82.9L274.7,128.8z"/>
	<path class="st13" d="M339.6,356.1l-17-17l-8,8l7.3,7.3h-43.1v11.4h43.1l-7.3,7.3l8,8l17-17C341.8,361.9,341.8,358.3,339.6,356.1z"
		/>
	<path class="st14" d="M311.2,188l-8-8l-81.2,81.2v-10.3h-11.4v24.1c0,3.1,2.5,5.7,5.7,5.7h24.1v-11.4h-10.4L311.2,188z"/>
	<path class="st15" d="M420.8,59v90.9c0,6.3-5.1,11.4-11.4,11.4h-90.9v11.4h113.6V59H420.8z"/>
	<g>
		<path class="st16" d="M125.3,59h11.4v11.4h-11.4V59z"/>
		<path class="st16" d="M84.5,137l9.8-5.8l5.8,9.8l-9.8,5.8L84.5,137z"/>
		<path class="st16" d="M81.7,90.7l5.6-9.9l9.9,5.6l-5.6,9.9L81.7,90.7z"/>
		<path class="st16" d="M162,140.9l5.8-9.8l9.8,5.8l-5.8,9.8L162,140.9z"/>
		<path class="st16" d="M164.8,86.5l9.9-5.6l5.6,9.9l-9.9,5.6L164.8,86.5z"/>
	</g>
	<path class="st16" d="M153,132.9c11.5-12.1,11.1-31.3-1.1-42.8c-12.1-11.5-31.3-11.1-42.8,1.1c-10.7,11.2-11.2,28.6-1.2,40.5
		c6.8,7.6,10.7,17.4,11,27.6v1.3c0,6.7,5.4,12.1,12.1,12.1s12.1-5.4,12.1-12.1v-1.1C142.9,149.6,146.4,140.1,153,132.9z"/>
	<path class="st17" d="M144.5,148.4c-0.9,3.6-1.4,7.3-1.4,11v1.1c0,6.7-5.4,12.1-12.1,12.1c-6.7,0-12.1-5.4-12.1-12.1v-1.3
		c0-3.7-0.5-7.3-1.6-10.9H144.5z"/>
	<path class="st18" d="M239,317.5h-28.4v-17H114V397h28.4h68.2h51.1v-51.1L239,317.5z"/>
	<path class="st7" d="M239,317.5h-28.4v-17h-11.4v73.9c0,6.3-5.1,11.4-11.4,11.4H114V397h147.7v-51.1L239,317.5z"/>
	<path class="st19" d="M210.5,317.5H239l22.7,28.4V397h-51.1V317.5z"/>
	<path class="st20" d="M239,317.5h-2.3l11.1,13.9c1.6,2,2.5,4.5,2.5,7.1v35.8c0,6.3-5.1,11.4-11.4,11.4h-28.4V397h51.1v-51.1
		L239,317.5z"/>
	<path class="st21" d="M261.7,345.9h-39.8v-28.4h17L261.7,345.9z"/>
	<path class="st22" d="M239,317.5h-6.4l10.8,13.5c2,2.4,1.6,6-0.9,8c-1,0.8-2.3,1.2-3.5,1.2h-17v5.7h39.8L239,317.5z"/>
	<circle class="st23" cx="148.1" cy="397" r="14.2"/>
	<circle class="st23" cx="236.1" cy="397" r="14.2"/>
	<path class="st24" d="M91.2,317.5h17v11.4h-17V317.5z"/>
	<path class="st24" d="M91.2,362.9h17v11.4h-17V362.9z"/>
	<path class="st24" d="M79.9,340.2h22.7v11.4H79.9V340.2z"/>
</g>
</svg>
